<svg width="21" height="20" viewBox="0 0 21 20" fill="none" xmlns="http://www.w3.org/2000/svg">
<rect x="0.345215" width="20" height="20" rx="10" fill="#C47F17"/>
<path d="M9.21436 9.00195H10.1167C10.4058 9.00195 10.644 8.95312 10.8315 8.85547C11.019 8.75391 11.1577 8.61328 11.2476 8.43359C11.3413 8.25 11.3882 8.03711 11.3882 7.79492C11.3882 7.57617 11.3452 7.38281 11.2593 7.21484C11.1772 7.04297 11.0503 6.91016 10.8784 6.81641C10.7065 6.71875 10.4897 6.66992 10.228 6.66992C10.021 6.66992 9.82959 6.71094 9.65381 6.79297C9.47803 6.875 9.3374 6.99023 9.23193 7.13867C9.12646 7.28711 9.07373 7.4668 9.07373 7.67773H7.38037C7.38037 7.20898 7.50537 6.80078 7.75537 6.45312C8.00928 6.10547 8.34912 5.83398 8.7749 5.63867C9.20068 5.44336 9.66943 5.3457 10.1812 5.3457C10.7593 5.3457 11.2651 5.43945 11.6987 5.62695C12.1323 5.81055 12.4702 6.08203 12.7124 6.44141C12.9546 6.80078 13.0757 7.24609 13.0757 7.77734C13.0757 8.04688 13.0132 8.30859 12.8882 8.5625C12.7632 8.8125 12.5835 9.03906 12.3491 9.24219C12.1187 9.44141 11.8374 9.60156 11.5054 9.72266C11.1733 9.83984 10.8003 9.89844 10.3862 9.89844H9.21436V9.00195ZM9.21436 10.2852V9.41211H10.3862C10.8511 9.41211 11.2593 9.46484 11.6108 9.57031C11.9624 9.67578 12.2573 9.82812 12.4956 10.0273C12.7339 10.2227 12.9136 10.4551 13.0347 10.7246C13.1558 10.9902 13.2163 11.2852 13.2163 11.6094C13.2163 12.0078 13.1401 12.3633 12.9878 12.6758C12.8354 12.9844 12.6206 13.2461 12.3433 13.4609C12.0698 13.6758 11.7495 13.8398 11.3823 13.9531C11.0151 14.0625 10.6147 14.1172 10.1812 14.1172C9.82178 14.1172 9.46826 14.0684 9.12061 13.9707C8.77686 13.8691 8.46436 13.7188 8.18311 13.5195C7.90576 13.3164 7.68311 13.0625 7.51514 12.7578C7.35107 12.4492 7.26904 12.084 7.26904 11.6621H8.9624C8.9624 11.8809 9.01709 12.0762 9.12646 12.248C9.23584 12.4199 9.38623 12.5547 9.57764 12.6523C9.77295 12.75 9.98975 12.7988 10.228 12.7988C10.4976 12.7988 10.728 12.75 10.9194 12.6523C11.1147 12.5508 11.2632 12.4102 11.3647 12.2305C11.4702 12.0469 11.5229 11.834 11.5229 11.5918C11.5229 11.2793 11.4663 11.0293 11.353 10.8418C11.2397 10.6504 11.0776 10.5098 10.8667 10.4199C10.6558 10.3301 10.4058 10.2852 10.1167 10.2852H9.21436Z" fill="white"/>
</svg>
